<?xml version="1.0" encoding="UTF-8" standalone="no"?>
<svg width="700px" height="247px" viewBox="0 0 700 247" version="1.1" xmlns="http://www.w3.org/2000/svg" xmlns:xlink="http://www.w3.org/1999/xlink">
    <!-- Generator: Sketch 39.1 (31720) - http://www.bohemiancoding.com/sketch -->
    <title>Logo</title>
    <desc>Created with Sketch.</desc>
    <defs></defs>
    <g id="Page-2" stroke="none" stroke-width="1" fill="none" fill-rule="evenodd">
        <g id="Desktop" transform="translate(-339.000000, -371.000000)" fill="#FC8A59">
            <g id="Logo" transform="translate(339.000000, 367.000000)">
                <path d="M298.259318,26.1905762 C288.307892,28.1728367 265.196291,32.7846749 263.027635,33.2944668 C260.540974,33.8753925 260.407077,35.9643536 260.407077,35.9643536 L259.759111,39.9122768 C259.759111,39.9122768 258.941382,43.708448 263.128058,43.708448 C267.312343,43.708448 270.085927,43.5448404 270.085927,43.5448404 C270.085927,43.5448404 260.497936,120.959702 257.965846,141.42014 C255.433755,161.880578 259.572611,183.95101 279.336784,183.95101 C297.51571,183.95101 310.974763,162.288411 318.628418,145.652598 C323.398504,135.278926 314.023314,133.329861 308.239436,144.092398 C303.694106,152.545459 298.38126,160.090379 293.888533,160.090379 C288.262462,160.090379 287.411259,149.38712 288.841089,137.844483 C290.521976,124.279277 299.751314,49.7287345 302.216456,29.8112841 C302.575109,26.925625 301.025728,25.6381041 298.259318,26.1905762" id="Fill-125"></path>
                <path d="M605.949184,47.2283831 L605.576184,51.0387811 C605.576184,51.0387811 605.317954,54.3109336 608.579306,54.5930975 C611.838266,54.8752614 614.580766,55.1123739 614.580766,55.1123739 L603.983765,140.759782 C603.983765,140.759782 603.558163,144.371005 607.216424,144.40183 C610.045001,144.425541 624.474808,144.546468 630.873178,144.598633 C632.747738,144.615231 634.067581,143.550596 634.304292,141.629985 C636.276883,125.722107 645.611426,50.2705366 645.840964,48.4163168 C646.096803,46.3415824 644.839127,44.7363307 642.498318,44.7078772 C633.553512,44.5964343 611.721106,44.3284972 609.251182,44.3024148 C606.12851,44.2644768 605.949184,47.2283831 605.949184,47.2283831" id="Fill-131"></path>
                <path d="M634.837489,106.661818 C634.837489,106.661818 639.801247,40.3035125 682.048183,40.3035125 C706.448544,40.3035125 705.559084,76.399149 681.376306,76.399149 C666.465904,76.399149 664.445492,63.561878 664.388108,56.9772638 C652.143693,67.2489774 640.363137,92.6650668 636.511203,123.762372 L634.837489,106.661818 Z" id="Fill-133"></path>
                <path d="M335.992724,107.521825 C366.698205,104.766578 374.837238,67.3929047 354.107093,67.3929047 C346.477348,67.3929047 342.642151,69.9086684 338.182899,73.2875216 C348.514497,78.4447186 344.63148,101.134014 326.658182,101.134014 C301.990026,101.134014 308.299929,55.0085186 361.033879,55.0085186 C414.729019,55.0085186 400.841974,112.508301 344.858627,112.508301 L335.992724,107.521825 Z" id="Fill-137"></path>
                <path d="M335.422944,118.626278 C370.116647,118.626278 363.440919,163.215284 336.683012,163.215284 C326.633554,163.215284 325.449999,163.450026 323.804977,157.014792 C339.308352,150.626981 338.048284,127.517997 321.213111,127.517997 C294.196974,127.517997 293.539444,178.969039 338.416501,178.969039 C399.715086,178.969039 411.20872,110.886926 349.422367,110.886926 L335.422944,118.626278 Z" id="Fill-139"></path>
                <path d="M234.549389,165.664182 C207.380227,165.664182 223.856747,100.339687 247.016169,100.339687 C267.983025,100.339687 261.716161,165.664182 234.549389,165.664182 M242.336942,81.1975947 C187.687785,81.1975947 166.211642,195.350668 219.414232,195.350668 C251.642793,195.350668 263.540509,151.046196 263.540509,151.046196 L266.457554,103.488541 C266.457554,103.488541 262.703652,81.1975947 242.336942,81.1975947" id="Fill-143"></path>
                <path d="M185.078226,74.8794949 C183.751209,85.57564 173.936072,94.2444732 163.152571,94.2444732 C152.364288,94.2444732 144.696286,85.57564 146.01852,74.8794949 C147.343145,64.185721 157.160674,55.5145167 167.944175,55.5145167 C178.732458,55.5145167 186.40046,64.185721 185.078226,74.8794949" id="Fill-145"></path>
                <path d="M199.046087,145.907968 C199.046087,145.907968 184.594761,184.905862 174.375541,184.905862 C168.751862,184.905862 167.900658,179.535264 169.328098,167.992627 C170.884652,155.442262 175.389334,119.043122 177.065439,105.53008 C177.462348,102.321948 174.782015,101.226488 172.862025,101.767104 C171.217003,102.229474 142.025038,110.329237 133.718634,112.593661 C131.322832,113.245721 131.279793,115.275404 131.279793,115.275404 L130.646173,120.399405 C130.646173,120.399405 130.120149,124.755162 134.543536,124.027226 C138.971705,123.299291 144.545173,122.384037 144.545173,122.384037 C143.151209,133.635025 140.308286,156.599371 138.455245,171.568284 C135.923155,192.028722 140.05962,214.101525 159.828574,214.101525 C189.338545,214.101525 206.400865,157.014318 206.400865,157.014318 L199.046087,145.907968 Z" id="Fill-147"></path>
                <path d="M530.629657,124.211226 C503.460495,124.211226 519.937015,58.8891019 543.096436,58.8891019 C564.063292,58.8891019 557.796428,124.211226 530.629657,124.211226 M538.41721,39.7470094 C483.768053,39.7470094 462.291909,153.897711 515.494499,153.897711 C547.72306,153.897711 559.618386,109.595611 559.618386,109.595611 L562.537821,62.0379559 C562.537821,62.0379559 558.78392,39.7470094 538.41721,39.7470094" id="Fill-149"></path>
                <path d="M48.0474247,155.769952 C48.4945455,151.705843 46.5769473,142.1099 36.4246756,142.1099 C-4.40438488,142.1099 -26.0646367,250.738252 56.7626933,250.738252 C93.228142,250.738252 127.13759,219.081361 127.13759,177.472859 C127.13759,137.839504 83.5851576,93.4164763 83.5851576,56.130535 C83.5851576,34.7666984 94.9855418,19.4468595 107.108014,19.4468595 C114.099357,19.4468595 116.715133,22.0195301 118.386456,23.9045745 C101.367175,30.4133128 101.491508,60.9818568 124.256411,60.9818568 C155.817877,60.9818568 160.399072,4.45423581 110.417186,4.45423581 C73.6480777,4.45423581 51.0959754,36.125353 51.0959754,71.623466 C51.0959754,107.121579 86.6791377,149.344203 86.6791377,177.816672 C86.6791377,201.169883 78.0810292,225.06371 55.5360999,225.06371 C15.3071855,225.06371 25.2394833,162.107969 45.7305262,158.231179 C46.3665375,158.110252 47.8967905,157.13572 48.0474247,155.769952" id="Fill-151"></path>
                <path d="M455.31013,64.6426368 C454.487619,64.3984109 453.643589,64.1897519 452.720656,64.1897519 C429.561234,64.1897519 408.372013,140.046784 447.469975,140.046784 C474.792163,140.046784 496.129627,86.6940997 496.129627,86.6940997 L501.2225,103.379707 C501.2225,103.379707 476.033102,164.858237 430.644366,164.858237 C370.811477,164.858237 390.324593,45.0476594 459.444204,45.0476594 C493.038038,45.0476594 491.529304,86.4735851 468.180992,86.4735851 C453.24668,86.4735851 452.61306,74.0939412 455.31013,64.6426368" id="Fill-127"></path>
                <path d="M621.381067,93.0404159 C621.381067,93.0404159 604.316356,150.127622 574.806385,150.127622 C555.03743,150.127622 550.898574,128.054819 553.433056,107.596753 C555.556281,90.4582607 559.542112,58.2678671 560.780661,48.2617194 C561.019763,46.3221392 562.174625,45.200597 564.149608,45.1650301 C565.643996,45.1365766 580.659602,44.8686395 587.854182,44.7405987 C590.154343,44.7002896 591.476578,46.1063668 591.175309,48.5438833 C589.810036,59.5909549 585.88159,91.297639 584.305908,104.021096 C582.876078,115.561362 583.729672,120.936702 589.350961,120.936702 C603.362339,120.936702 614.877492,87.8191985 614.877492,87.8191985 L621.381067,93.0404159 Z" id="Fill-129"></path>
                <path d="M332.172591,108.026637 C327.655954,108.543543 328.251318,119.464945 331.790028,118.948039 L335.421988,118.625566 L350.516498,114.238985 L351.044914,109.318901 L344.785223,110.291062 L335.993442,107.521588 L332.172591,108.026637 Z" id="Fill-135"></path>
                <path d="M325.457172,147.58222 C325.457172,147.58222 324.005823,163.215047 336.683012,163.215047 C345.075493,163.215047 320.978791,172.647383 320.978791,172.647383 L313.021476,147.575106 L325.457172,147.58222 Z" id="Fill-141"></path>
            </g>
        </g>
    </g>
</svg>